#!OML:ASF I:\Actors\actors\Patient Classification 1\Patient 1\Session 1\Subject1.ASF
:FULLY-SPECIFIED
:DEGREES
1073
root 0.768564 17.4492 9.49619 9.75327 -1.26473 -8.08484
lowerback -1.02145 1.26446 5.55253
upperback -9.37317 2.09802 2.11193
thorax -9.23367 0.693106 -0.997831
lowerneck -13.6481 -4.06256 -3.908
upperneck 27.4972 -7.0054 7.27299
head 11.6314 -2.69689 2.3651
rclavicle 3.61043e-014 2.72335e-014
rhumerus -51.2847 -32.2438 -56.4804
rradius 22.2717
rwrist 51.1761
rhand -0.930984 -29.9738
rfingers 7.12502
rthumb 24.6984 -58.3997
lclavicle 3.61043e-014 2.72335e-014
lhumerus -46.1824 31.7372 61.703
lradius 15.6255
lwrist -44.7417
lhand -18.0796 -12.9488
lfingers 7.12502
lthumb 8.19353 16.8724
rfemur -4.04289 24.0978 24.8618
rtibia 3.17849
rfoot -11.611 -26.1389
rtoes 4.24866
lfemur 6.44584 -46.0113 -14.7216
ltibia -4.76067
lfoot -24.6358 53.8628
ltoes 13.4317
1074
root 0.772617 17.4501 9.49615 9.76304 -1.32789 -7.97869
lowerback -0.989601 1.21707 5.55347
upperback -9.397 2.03298 2.05105
thorax -9.28054 0.656257 -1.05936
lowerneck -13.5949 -4.79017 -4.48389
upperneck 27.4748 -7.85798 7.07173
head 11.6877 -3.17093 2.26164
rclavicle -2.28602e-014 -5.56597e-015
rhumerus -50.8364 -31.6998 -57.3415
rradius 22.4714
rwrist 50.5664
rhand -0.951181 -30.0408
rfingers 7.12502
rthumb 24.679 -58.4694
lclavicle -2.28602e-014 -5.56597e-015
lhumerus -46.3813 31.765 61.5987
lradius 15.669
lwrist -44.7214
lhand -18.0106 -13.0916
lfingers 7.12502
lthumb 8.2601 16.7269
rfemur -4.05488 24.2158 24.722
rtibia 3.18485
rfoot -11.6345 -26.2068
rtoes 4.7088
lfemur 6.48308 -46.0728 -14.9046
ltibia -4.7648
lfoot -24.6876 53.9703
ltoes 13.4745
1075
root 0.776478 17.4513 9.49614 9.77016 -1.38209 -7.92341
lowerback -0.942239 1.15576 5.59469
upperback -9.41799 1.95403 2.01835
thorax -9.33503 0.610501 -1.11261
lowerneck -12.9666 -5.24166 -4.4218
upperneck 26.9592 -8.31229 6.41474
head 11.3572 -3.47805 1.94939
rclavicle -1.73937e-015 -1.0138e-014
rhumerus -50.4199 -31.2324 -58.1175
rradius 22.6695
rwrist 50.0557
rhand -0.973656 -30.034
rfingers 7.12502
rthumb 24.6575 -58.4655
lclavicle -1.73937e-015 -1.0138e-014
lhumerus -46.6755 32.0125 61.3347
lradius 15.6893
lwrist -44.7939
lhand -18.0164 -13.1789
lfingers 7.12502
lthumb 8.25454 16.6399
rfemur -4.06307 24.2892 24.6393
rtibia 3.17167
rfoot -11.6052 -26.2466
rtoes 4.76811
lfemur 6.55665 -46.2139 -15.0587
ltibia -4.77018
lfoot -24.8772 54.1179
ltoes 13.6618
1076
root 0.779642 17.4522 9.49612 9.76185 -1.4328 -7.92826
lowerback -0.892296 1.09404 5.67609
upperback -9.41918 1.87848 2.02549
thorax -9.36985 0.565892 -1.14596
lowerneck -12.4635 -5.74652 -4.749
upperneck 26.5879 -8.83243 6.00628
head 11.1443 -3.81769 1.79055
rclavicle 3.77939e-014 -4.35338e-014
rhumerus -49.9561 -30.8258 -58.7921
rradius 22.7926
rwrist 49.6313
rhand -1.02637 -29.9411
rfingers 7.12502
rthumb 24.6069 -58.3795
lclavicle 3.77939e-014 -4.35338e-014
lhumerus -46.938 32.1354 61.2542
lradius 15.7811
lwrist -44.5578
lhand -17.9853 -13.3004
lfingers 7.12502
lthumb 8.28449 16.5171
rfemur -4.0573 24.3498 24.6337
rtibia 3.16176
rfoot -11.565 -26.2675
rtoes 4.66996
lfemur 6.65878 -46.3652 -15.153
ltibia -4.77922
lfoot -25.2903 54.2224
ltoes 14.0945
1077
root 0.783269 17.453 9.49532 9.78085 -1.47198 -7.96292
lowerback -0.888085 1.03751 5.77866
upperback -9.41722 1.80839 2.05024
thorax -9.37426 0.524002 -1.1717
lowerneck -12.0948 -6.41974 -5.4448
upperneck 26.2914 -9.54157 5.6879
head 11.0261 -4.2633 1.69856
rclavicle -5.69021e-015 8.94531e-015
rhumerus -49.4733 -30.475 -59.385
rradius 22.8566
rwrist 49.2899
rhand -1.04224 -29.7888
rfingers 7.12502
rthumb 24.5917 -58.2292
lclavicle -5.69021e-015 8.94531e-015
lhumerus -47.1713 32.2157 61.2364
lradius 15.8496
lwrist -44.217
lhand -18.0169 -13.3828
lfingers 7.12502
lthumb 8.25401 16.436
rfemur -4.09598 24.3406 24.6421
rtibia 3.17277
rfoot -11.566 -26.2173
rtoes 4.85996
lfemur 6.67049 -46.4388 -15.1369
ltibia -4.78341
lfoot -25.6116 54.2647
ltoes 14.4055
1078
root 0.786918 17.4536 9.49418 9.84469 -1.49854 -8.01756
lowerback -0.939383 0.974181 5.89217
upperback -9.4288 1.72642 2.08447
thorax -9.36219 0.476114 -1.19155
lowerneck -11.6935 -7.08631 -6.02047
upperneck 26.0491 -10.2633 5.30122
head 10.9162 -4.70924 1.5636
rclavicle 7.45443e-015 -2.48481e-014
rhumerus -49.0472 -30.1801 -59.9449
rradius 22.9555
rwrist 49.0317
rhand -1.01682 -29.6827
rfingers 7.12502
rthumb 24.6161 -58.1198
lclavicle 7.45443e-015 -2.48481e-014
lhumerus -47.4572 32.4399 61.0853
lradius 15.8556
lwrist -44.0541
lhand -18.1257 -13.4139
lfingers 7.12502
lthumb 8.149 16.4089
rfemur -4.1933 24.298 24.6517
rtibia 3.20115
rfoot -11.5519 -26.1472
rtoes 4.98857
lfemur 6.56279 -46.4094 -14.9995
ltibia -4.78432
lfoot -25.7215 54.2386
ltoes 14.5235
1079
root 0.789646 17.454 9.49422 9.89296 -1.53279 -8.04509
lowerback -0.986008 0.903754 5.95756
upperback -9.44212 1.6336 2.12448
thorax -9.35636 0.426846 -1.17803
lowerneck -11.2808 -7.76569 -6.64664
upperneck 25.843 -11.0298 5.00921
head 10.8331 -5.16789 1.46626
rclavicle -1.74185e-014 2.98177e-014
rhumerus -48.6346 -29.8779 -60.4883
rradius 23.0302
rwrist 48.8305
rhand -1.07403 -29.7215
rfingers 7.12502
rthumb 24.5612 -58.166
lclavicle -1.74185e-014 2.98177e-014
lhumerus -47.7993 32.7279 60.8878
lradius 15.8847
lwrist -43.9727
lhand -18.1329 -13.3956
lfingers 7.12502
lthumb 8.14207 16.4276
rfemur -4.23104 24.3668 24.6562
rtibia 3.17132
rfoot -11.4921 -26.1873
rtoes 4.79873
lfemur 6.47577 -46.2988 -14.8999
ltibia -4.79639
lfoot -25.7584 54.1485
ltoes 14.5839
1080
root 0.791075 17.4548 9.49509 9.9095 -1.58671 -7.99467
lowerback -1.00654 0.828767 5.90261
upperback -9.44953 1.53051 2.15371
thorax -9.36038 0.381516 -1.10913
lowerneck -10.7796 -8.43542 -7.25237
upperneck 25.529 -11.7973 4.7375
head 10.6966 -5.62498 1.37906
rclavicle 1.10822e-014 7.95139e-016
rhumerus -48.1987 -29.4985 -61.0628
rradius 23.0777
rwrist 48.6071
rhand -1.13183 -29.8951
rfingers 7.12502
rthumb 24.5058 -58.3471
lclavicle 1.10822e-014 7.95139e-016
lhumerus -48.0937 32.8825 60.8159
lradius 15.9569
lwrist -43.7715
lhand -18.0069 -13.2498
lfingers 7.12502
lthumb 8.26365 16.5686
rfemur -4.19403 24.5226 24.5952
rtibia 3.08191
rfoot -11.4591 -26.2983
rtoes 4.61608
lfemur 6.42209 -46.1457 -14.9166
ltibia -4.78883
lfoot -25.7269 54.0495
ltoes 14.4373
1081
root 0.792154 17.4556 9.49544 9.93976 -1.6606 -7.92438
lowerback -1.0253 0.754291 5.80777
upperback -9.46191 1.4261 2.17381
thorax -9.37072 0.338061 -1.02773
lowerneck -10.2089 -9.06767 -7.74157
upperneck 25.1132 -12.5323 4.43585
head 10.5004 -6.06128 1.27552
rclavicle -2.21148e-014 -4.37326e-015
rhumerus -47.539 -28.753 -62.109
rradius 23.6284
rwrist 46.1389
rhand 0.0439012 -31.2497
rfingers 7.12502
rthumb 25.6324 -59.5444
lclavicle -2.21148e-014 -4.37326e-015
lhumerus -48.4011 33.0394 60.7126
lradius 16.0324
lwrist -43.6591
lhand -17.8359 -13.1626
lfingers 7.12502
lthumb 8.42867 16.6492
rfemur -4.20202 24.6229 24.4936
rtibia 3.03367
rfoot -11.4506 -26.3415
rtoes 4.58974
lfemur 6.32997 -46.007 -14.9384
ltibia -4.74705
lfoot -25.6308 53.9847
ltoes 14.1196
